<mxfile host="Electron" modified="2024-07-01T23:04:03.201Z" agent="Mozilla/5.0 (X11; Linux x86_64) AppleWebKit/537.36 (KHTML, like Gecko) draw.io/24.5.3 Chrome/124.0.6367.207 Electron/30.0.6 Safari/537.36" etag="Y1axD6o2BWi8dCXEFu-7" version="24.5.3" type="device">
  <diagram name="Page-1" id="58cdce13-f638-feb5-8d6f-7d28b1aa9fa0">
    <mxGraphModel dx="1318" dy="656" grid="1" gridSize="10" guides="1" tooltips="1" connect="1" arrows="1" fold="1" page="1" pageScale="1" pageWidth="1169" pageHeight="827" background="none" math="0" shadow="0">
      <root>
        <mxCell id="0" />
        <mxCell id="1" parent="0" />
        <mxCell id="382b91b5511bd0f7-5" value="&lt;b&gt;Complete Cycle&lt;br&gt;&lt;/b&gt;&lt;div&gt;&lt;span style=&quot;background-color: initial;&quot;&gt;cont_smp_inv&lt;/span&gt;&amp;nbsp;= 0&lt;div&gt;&lt;div style=&quot;border-color: var(--border-color);&quot;&gt;&lt;span style=&quot;background-color: initial;&quot;&gt;cont_smp_valid&lt;/span&gt;&amp;nbsp;= 0&lt;/div&gt;&lt;/div&gt;&lt;/div&gt;&lt;div style=&quot;border-color: var(--border-color);&quot;&gt;Error = 0.0&lt;/div&gt;&lt;div style=&quot;border-color: var(--border-color);&quot;&gt;buffer_mu1 = 0 .. 0..99&lt;/div&gt;&lt;div style=&quot;border-color: var(--border-color);&quot;&gt;buffer_mu2 = 0 .. 0..99&lt;/div&gt;" style="rounded=1;whiteSpace=wrap;html=1;arcSize=24;fillColor=#ffffc0;strokeColor=#ff0000;shadow=0;comic=0;labelBackgroundColor=none;fontFamily=Verdana;fontSize=12;fontColor=#000000;align=center;" parent="1" vertex="1">
          <mxGeometry x="170" y="192" width="130" height="90" as="geometry" />
        </mxCell>
        <mxCell id="382b91b5511bd0f7-6" value="&lt;b&gt;Initial&lt;/b&gt;&lt;br&gt;&lt;span style=&quot;background-color: initial;&quot;&gt;cont_smp_inv&lt;/span&gt;&amp;nbsp;= 0&lt;div&gt;&lt;div style=&quot;border-color: var(--border-color);&quot;&gt;&lt;span style=&quot;background-color: initial;&quot;&gt;cont_smp_valid&lt;/span&gt;&amp;nbsp;= 0&lt;/div&gt;&lt;/div&gt;&lt;div style=&quot;border-color: var(--border-color);&quot;&gt;Error = 0.0&lt;/div&gt;" style="rounded=1;whiteSpace=wrap;html=1;arcSize=24;fillColor=#ffffc0;strokeColor=#ff0000;shadow=0;comic=0;labelBackgroundColor=none;fontFamily=Verdana;fontSize=12;fontColor=#000000;align=center;" parent="1" vertex="1">
          <mxGeometry x="230" y="50" width="120" height="80" as="geometry" />
        </mxCell>
        <mxCell id="382b91b5511bd0f7-7" value="&lt;b&gt;Get Sample&lt;/b&gt;&lt;div&gt;parse the information of the frame, quality and value&lt;br&gt;&lt;/div&gt;" style="rounded=1;whiteSpace=wrap;html=1;arcSize=24;fillColor=#ffffc0;strokeColor=#ff0000;shadow=0;comic=0;labelBackgroundColor=none;fontFamily=Verdana;fontSize=12;fontColor=#000000;align=center;" parent="1" vertex="1">
          <mxGeometry x="520" y="112" width="120" height="60" as="geometry" />
        </mxCell>
        <mxCell id="382b91b5511bd0f7-9" value="&lt;b&gt;Invalid&lt;/b&gt;&lt;br&gt;cont_smp_inv += 1" style="rounded=1;whiteSpace=wrap;html=1;arcSize=24;fillColor=#ffffc0;strokeColor=#ff0000;shadow=0;comic=0;labelBackgroundColor=none;fontFamily=Verdana;fontSize=12;fontColor=#000000;align=center;" parent="1" vertex="1">
          <mxGeometry x="390" y="370" width="120" height="60" as="geometry" />
        </mxCell>
        <mxCell id="382b91b5511bd0f7-10" value="&lt;b&gt;Valid&lt;/b&gt;&lt;div&gt;cont_smp_valid += 1&lt;b&gt;&lt;br&gt;&lt;/b&gt;&lt;/div&gt;&lt;div&gt;&lt;div&gt;Fill the buffer MU_1&lt;span style=&quot;background-color: initial;&quot;&gt;[n_samples]&lt;/span&gt;&lt;/div&gt;&lt;div&gt;Fill the buffer MU_2[n_samples]&lt;/div&gt;&lt;/div&gt;" style="rounded=1;whiteSpace=wrap;html=1;arcSize=24;fillColor=#ffffc0;strokeColor=#ff0000;shadow=0;comic=0;labelBackgroundColor=none;fontFamily=Verdana;fontSize=12;fontColor=#000000;align=center;" parent="1" vertex="1">
          <mxGeometry x="810" y="360" width="120" height="118" as="geometry" />
        </mxCell>
        <mxCell id="2a3bc250acf0617d-9" style="edgeStyle=orthogonalEdgeStyle;html=1;labelBackgroundColor=none;endArrow=open;endSize=8;strokeColor=#ff0000;fontFamily=Verdana;fontSize=12;align=left;exitX=0.5;exitY=0;exitDx=0;exitDy=0;" parent="1" source="382b91b5511bd0f7-1" target="382b91b5511bd0f7-6" edge="1">
          <mxGeometry relative="1" as="geometry">
            <mxPoint x="155" y="112" as="sourcePoint" />
            <Array as="points" />
          </mxGeometry>
        </mxCell>
        <mxCell id="dteMNdMqzlH5e8aGmHEx-1" style="edgeStyle=orthogonalEdgeStyle;html=1;exitX=1;exitY=0.25;entryX=0.5;entryY=0;labelBackgroundColor=none;endArrow=open;endSize=8;strokeColor=#ff0000;fontFamily=Verdana;fontSize=12;align=left;entryDx=0;entryDy=0;exitDx=0;exitDy=0;" parent="1" source="382b91b5511bd0f7-6" target="382b91b5511bd0f7-7" edge="1">
          <mxGeometry relative="1" as="geometry">
            <mxPoint x="450" y="282" as="sourcePoint" />
            <mxPoint x="560" y="222" as="targetPoint" />
            <Array as="points">
              <mxPoint x="580" y="92" />
            </Array>
          </mxGeometry>
        </mxCell>
        <mxCell id="MgHSJvUHRTqeJIf1Ur7t-37" value="tick" style="edgeLabel;html=1;align=center;verticalAlign=middle;resizable=0;points=[];" parent="dteMNdMqzlH5e8aGmHEx-1" vertex="1" connectable="0">
          <mxGeometry x="-0.0809" y="-3" relative="1" as="geometry">
            <mxPoint as="offset" />
          </mxGeometry>
        </mxCell>
        <mxCell id="dteMNdMqzlH5e8aGmHEx-2" value="&lt;b&gt;Questionable&lt;/b&gt;" style="rounded=1;whiteSpace=wrap;html=1;arcSize=24;fillColor=#ffffc0;strokeColor=#ff0000;shadow=0;comic=0;labelBackgroundColor=none;fontFamily=Verdana;fontSize=12;fontColor=#000000;align=center;" parent="1" vertex="1">
          <mxGeometry x="450" y="267" width="120" height="60" as="geometry" />
        </mxCell>
        <mxCell id="dteMNdMqzlH5e8aGmHEx-33" value="&lt;b&gt;Toogle MU&lt;/b&gt;" style="rounded=1;whiteSpace=wrap;html=1;arcSize=24;fillColor=#ffffc0;strokeColor=#ff0000;shadow=0;comic=0;labelBackgroundColor=none;fontFamily=Verdana;fontSize=12;fontColor=#000000;align=center;" parent="1" vertex="1">
          <mxGeometry x="220" y="522" width="120" height="60" as="geometry" />
        </mxCell>
        <mxCell id="Y7ORPjoq6ikZlCJi7uoU-4" value="&lt;b&gt;Check the Error Percentage&lt;/b&gt;&lt;div&gt;Update the value of the Error&lt;b&gt;&lt;br&gt;&lt;/b&gt;&lt;/div&gt;" style="rounded=1;whiteSpace=wrap;html=1;arcSize=24;fillColor=#ffffc0;strokeColor=#ff0000;shadow=0;comic=0;labelBackgroundColor=none;fontFamily=Verdana;fontSize=12;fontColor=#000000;align=center;" parent="1" vertex="1">
          <mxGeometry x="680" y="522" width="120" height="60" as="geometry" />
        </mxCell>
        <mxCell id="Y7ORPjoq6ikZlCJi7uoU-5" value="&lt;b&gt;Keep MU&lt;/b&gt;" style="rounded=1;whiteSpace=wrap;html=1;arcSize=24;fillColor=#ffffc0;strokeColor=#ff0000;shadow=0;comic=0;labelBackgroundColor=none;fontFamily=Verdana;fontSize=12;fontColor=#000000;align=center;" parent="1" vertex="1">
          <mxGeometry x="220" y="682" width="120" height="60" as="geometry" />
        </mxCell>
        <mxCell id="Y7ORPjoq6ikZlCJi7uoU-6" value="&lt;b&gt;Complete Sample&lt;/b&gt;" style="rounded=1;whiteSpace=wrap;html=1;arcSize=24;fillColor=#ffffc0;strokeColor=#ff0000;shadow=0;comic=0;labelBackgroundColor=none;fontFamily=Verdana;fontSize=12;fontColor=#000000;align=center;" parent="1" vertex="1">
          <mxGeometry x="660" y="272" width="120" height="60" as="geometry" />
        </mxCell>
        <mxCell id="Bgu9Oo_tDkSNlxmlILWr-1" value="" style="group" parent="1" vertex="1" connectable="0">
          <mxGeometry x="780" y="940" width="259" height="120" as="geometry" />
        </mxCell>
        <mxCell id="Y7ORPjoq6ikZlCJi7uoU-26" value="&lt;font style=&quot;font-size: 16px;&quot;&gt;Calculus of Dispersion&lt;br&gt;&lt;/font&gt;&lt;u&gt;MU Backup.Value - MU Principal.Value&lt;/u&gt;&lt;div&gt;&amp;nbsp;MU Principal.Value&lt;/div&gt;&lt;div&gt;&lt;br&gt;&lt;/div&gt;&lt;div&gt;&lt;u style=&quot;border-color: var(--border-color);&quot;&gt;MU Principal.Value - MU Backup.Value&lt;/u&gt;&lt;div style=&quot;border-color: var(--border-color);&quot;&gt;MU Backup.Value&lt;/div&gt;&lt;/div&gt;&lt;div&gt;&lt;br&gt;&lt;/div&gt;" style="text;html=1;align=center;verticalAlign=middle;resizable=0;points=[];autosize=1;strokeColor=none;fillColor=none;" parent="Bgu9Oo_tDkSNlxmlILWr-1" vertex="1">
          <mxGeometry x="29" width="230" height="120" as="geometry" />
        </mxCell>
        <mxCell id="Y7ORPjoq6ikZlCJi7uoU-27" value="X =" style="text;html=1;align=center;verticalAlign=middle;resizable=0;points=[];autosize=1;strokeColor=none;fillColor=none;" parent="Bgu9Oo_tDkSNlxmlILWr-1" vertex="1">
          <mxGeometry y="20" width="40" height="30" as="geometry" />
        </mxCell>
        <mxCell id="Y7ORPjoq6ikZlCJi7uoU-28" value="Y =&amp;nbsp;" style="text;html=1;align=center;verticalAlign=middle;resizable=0;points=[];autosize=1;strokeColor=none;fillColor=none;" parent="Bgu9Oo_tDkSNlxmlILWr-1" vertex="1">
          <mxGeometry y="60" width="40" height="30" as="geometry" />
        </mxCell>
        <mxCell id="Bgu9Oo_tDkSNlxmlILWr-2" value="" style="group" parent="1" vertex="1" connectable="0">
          <mxGeometry x="870" y="1060" width="90" height="50" as="geometry" />
        </mxCell>
        <mxCell id="Y7ORPjoq6ikZlCJi7uoU-29" value="Erro X = |X|" style="text;html=1;align=center;verticalAlign=middle;resizable=0;points=[];autosize=1;strokeColor=none;fillColor=none;" parent="Bgu9Oo_tDkSNlxmlILWr-2" vertex="1">
          <mxGeometry width="90" height="30" as="geometry" />
        </mxCell>
        <mxCell id="Y7ORPjoq6ikZlCJi7uoU-30" value="Erro Y = |Y|" style="text;html=1;align=center;verticalAlign=middle;resizable=0;points=[];autosize=1;strokeColor=none;fillColor=none;" parent="Bgu9Oo_tDkSNlxmlILWr-2" vertex="1">
          <mxGeometry y="20" width="90" height="30" as="geometry" />
        </mxCell>
        <mxCell id="Bgu9Oo_tDkSNlxmlILWr-20" value="&lt;b&gt;&lt;i&gt;FSM ChoosenOne&lt;/i&gt;&lt;/b&gt;" style="text;html=1;align=center;verticalAlign=middle;resizable=0;points=[];autosize=1;strokeColor=none;fillColor=none;" parent="1" vertex="1">
          <mxGeometry x="520" y="50" width="130" height="30" as="geometry" />
        </mxCell>
        <mxCell id="382b91b5511bd0f7-1" value="" style="ellipse;html=1;shape=startState;fillColor=#000000;strokeColor=#ff0000;rounded=1;shadow=0;comic=0;labelBackgroundColor=none;fontFamily=Verdana;fontSize=12;fontColor=#000000;align=center;direction=south;" parent="1" vertex="1">
          <mxGeometry x="140" y="97" width="30" height="30" as="geometry" />
        </mxCell>
        <mxCell id="Dl-U8Hc3WpcqcS4FIjY1-2" style="edgeStyle=orthogonalEdgeStyle;html=1;exitX=0.5;exitY=1;entryX=0.5;entryY=0;labelBackgroundColor=none;endArrow=open;endSize=8;strokeColor=#ff0000;fontFamily=Verdana;fontSize=12;align=left;entryDx=0;entryDy=0;exitDx=0;exitDy=0;" parent="1" source="382b91b5511bd0f7-7" target="dteMNdMqzlH5e8aGmHEx-2" edge="1">
          <mxGeometry relative="1" as="geometry">
            <mxPoint x="510" y="232" as="sourcePoint" />
            <mxPoint x="680" y="252" as="targetPoint" />
            <Array as="points">
              <mxPoint x="580" y="232" />
              <mxPoint x="510" y="232" />
            </Array>
          </mxGeometry>
        </mxCell>
        <mxCell id="MgHSJvUHRTqeJIf1Ur7t-11" value="smp_questionable" style="edgeLabel;html=1;align=center;verticalAlign=middle;resizable=0;points=[];" parent="Dl-U8Hc3WpcqcS4FIjY1-2" vertex="1" connectable="0">
          <mxGeometry x="0.3091" y="2" relative="1" as="geometry">
            <mxPoint as="offset" />
          </mxGeometry>
        </mxCell>
        <mxCell id="Dl-U8Hc3WpcqcS4FIjY1-3" style="edgeStyle=orthogonalEdgeStyle;html=1;exitX=0.25;exitY=1;entryX=0.5;entryY=0;labelBackgroundColor=none;endArrow=open;endSize=8;strokeColor=#ff0000;fontFamily=Verdana;fontSize=12;align=left;entryDx=0;entryDy=0;exitDx=0;exitDy=0;" parent="1" source="382b91b5511bd0f7-7" target="382b91b5511bd0f7-9" edge="1">
          <mxGeometry relative="1" as="geometry">
            <mxPoint x="430" y="182" as="sourcePoint" />
            <mxPoint x="390" y="277" as="targetPoint" />
            <Array as="points">
              <mxPoint x="550" y="212" />
              <mxPoint x="390" y="212" />
              <mxPoint x="390" y="352" />
              <mxPoint x="450" y="352" />
            </Array>
          </mxGeometry>
        </mxCell>
        <mxCell id="MgHSJvUHRTqeJIf1Ur7t-10" value="smp_invalid" style="edgeLabel;html=1;align=center;verticalAlign=middle;resizable=0;points=[];" parent="Dl-U8Hc3WpcqcS4FIjY1-3" vertex="1" connectable="0">
          <mxGeometry x="0.1423" relative="1" as="geometry">
            <mxPoint as="offset" />
          </mxGeometry>
        </mxCell>
        <mxCell id="Dl-U8Hc3WpcqcS4FIjY1-4" style="edgeStyle=orthogonalEdgeStyle;html=1;exitX=1;exitY=0.25;entryX=0.5;entryY=0;labelBackgroundColor=none;endArrow=open;endSize=8;strokeColor=#ff0000;fontFamily=Verdana;fontSize=12;align=left;entryDx=0;entryDy=0;exitDx=0;exitDy=0;" parent="1" source="382b91b5511bd0f7-7" target="382b91b5511bd0f7-10" edge="1">
          <mxGeometry relative="1" as="geometry">
            <mxPoint x="810" y="72" as="sourcePoint" />
            <mxPoint x="950" y="182" as="targetPoint" />
            <Array as="points">
              <mxPoint x="870" y="127" />
            </Array>
          </mxGeometry>
        </mxCell>
        <mxCell id="MgHSJvUHRTqeJIf1Ur7t-12" value="smp_valid" style="edgeLabel;html=1;align=center;verticalAlign=middle;resizable=0;points=[];" parent="Dl-U8Hc3WpcqcS4FIjY1-4" vertex="1" connectable="0">
          <mxGeometry x="0.68" y="1" relative="1" as="geometry">
            <mxPoint as="offset" />
          </mxGeometry>
        </mxCell>
        <mxCell id="Dl-U8Hc3WpcqcS4FIjY1-5" style="edgeStyle=orthogonalEdgeStyle;html=1;exitX=0.5;exitY=0;entryX=0.75;entryY=1;labelBackgroundColor=none;endArrow=open;endSize=8;strokeColor=#ff0000;fontFamily=Verdana;fontSize=12;align=left;entryDx=0;entryDy=0;exitDx=0;exitDy=0;" parent="1" source="Y7ORPjoq6ikZlCJi7uoU-6" target="382b91b5511bd0f7-7" edge="1">
          <mxGeometry relative="1" as="geometry">
            <mxPoint x="740" y="232" as="sourcePoint" />
            <mxPoint x="910" y="252" as="targetPoint" />
            <Array as="points">
              <mxPoint x="720" y="232" />
              <mxPoint x="610" y="232" />
            </Array>
          </mxGeometry>
        </mxCell>
        <mxCell id="MgHSJvUHRTqeJIf1Ur7t-16" value="tick" style="edgeLabel;html=1;align=center;verticalAlign=middle;resizable=0;points=[];" parent="Dl-U8Hc3WpcqcS4FIjY1-5" vertex="1" connectable="0">
          <mxGeometry x="-0.1524" y="-2" relative="1" as="geometry">
            <mxPoint as="offset" />
          </mxGeometry>
        </mxCell>
        <mxCell id="Dl-U8Hc3WpcqcS4FIjY1-6" style="edgeStyle=orthogonalEdgeStyle;html=1;exitX=1;exitY=0.5;labelBackgroundColor=none;endArrow=open;endSize=8;strokeColor=#ff0000;fontFamily=Verdana;fontSize=12;align=left;exitDx=0;exitDy=0;" parent="1" source="382b91b5511bd0f7-5" edge="1">
          <mxGeometry relative="1" as="geometry">
            <mxPoint x="404.5" y="442" as="sourcePoint" />
            <mxPoint x="520" y="162" as="targetPoint" />
            <Array as="points">
              <mxPoint x="340" y="237" />
              <mxPoint x="340" y="162" />
            </Array>
          </mxGeometry>
        </mxCell>
        <mxCell id="MgHSJvUHRTqeJIf1Ur7t-36" value="tick" style="edgeLabel;html=1;align=center;verticalAlign=middle;resizable=0;points=[];" parent="Dl-U8Hc3WpcqcS4FIjY1-6" vertex="1" connectable="0">
          <mxGeometry x="0.2339" y="-1" relative="1" as="geometry">
            <mxPoint as="offset" />
          </mxGeometry>
        </mxCell>
        <mxCell id="Dl-U8Hc3WpcqcS4FIjY1-9" style="edgeStyle=orthogonalEdgeStyle;html=1;exitX=0;exitY=0.5;entryX=0.5;entryY=1;labelBackgroundColor=none;endArrow=open;endSize=8;strokeColor=#ff0000;fontFamily=Verdana;fontSize=12;align=left;entryDx=0;entryDy=0;exitDx=0;exitDy=0;" parent="1" source="382b91b5511bd0f7-10" target="Y7ORPjoq6ikZlCJi7uoU-6" edge="1">
          <mxGeometry relative="1" as="geometry">
            <mxPoint x="810" y="422" as="sourcePoint" />
            <mxPoint x="710" y="342" as="targetPoint" />
            <Array as="points">
              <mxPoint x="810" y="422" />
              <mxPoint x="720" y="422" />
            </Array>
          </mxGeometry>
        </mxCell>
        <mxCell id="MgHSJvUHRTqeJIf1Ur7t-15" value="tick" style="edgeLabel;html=1;align=center;verticalAlign=middle;resizable=0;points=[];" parent="Dl-U8Hc3WpcqcS4FIjY1-9" vertex="1" connectable="0">
          <mxGeometry x="-0.3778" y="-3" relative="1" as="geometry">
            <mxPoint as="offset" />
          </mxGeometry>
        </mxCell>
        <mxCell id="Dl-U8Hc3WpcqcS4FIjY1-10" style="edgeStyle=orthogonalEdgeStyle;html=1;exitX=1;exitY=0.5;entryX=0;entryY=0.5;labelBackgroundColor=none;endArrow=open;endSize=8;strokeColor=#ff0000;fontFamily=Verdana;fontSize=12;align=left;entryDx=0;entryDy=0;exitDx=0;exitDy=0;" parent="1" source="dteMNdMqzlH5e8aGmHEx-2" target="Y7ORPjoq6ikZlCJi7uoU-6" edge="1">
          <mxGeometry relative="1" as="geometry">
            <mxPoint x="630" y="292" as="sourcePoint" />
            <mxPoint x="630" y="352" as="targetPoint" />
            <Array as="points">
              <mxPoint x="570" y="302" />
            </Array>
          </mxGeometry>
        </mxCell>
        <mxCell id="MgHSJvUHRTqeJIf1Ur7t-13" value="tick" style="edgeLabel;html=1;align=center;verticalAlign=middle;resizable=0;points=[];" parent="Dl-U8Hc3WpcqcS4FIjY1-10" vertex="1" connectable="0">
          <mxGeometry x="-0.0947" y="-1" relative="1" as="geometry">
            <mxPoint as="offset" />
          </mxGeometry>
        </mxCell>
        <mxCell id="Dl-U8Hc3WpcqcS4FIjY1-11" style="edgeStyle=orthogonalEdgeStyle;html=1;entryX=1;entryY=0.5;labelBackgroundColor=none;endArrow=open;endSize=8;strokeColor=#ff0000;fontFamily=Verdana;fontSize=12;align=left;entryDx=0;entryDy=0;exitX=0.5;exitY=1;exitDx=0;exitDy=0;" parent="1" source="382b91b5511bd0f7-10" target="Y7ORPjoq6ikZlCJi7uoU-4" edge="1">
          <mxGeometry relative="1" as="geometry">
            <mxPoint x="880" y="520" as="sourcePoint" />
            <mxPoint x="869.5" y="537" as="targetPoint" />
            <Array as="points" />
          </mxGeometry>
        </mxCell>
        <mxCell id="MgHSJvUHRTqeJIf1Ur7t-5" value="cont_smp_valid &amp;gt;= n_samples" style="edgeLabel;html=1;align=center;verticalAlign=middle;resizable=0;points=[];" parent="Dl-U8Hc3WpcqcS4FIjY1-11" vertex="1" connectable="0">
          <mxGeometry x="-0.3517" y="2" relative="1" as="geometry">
            <mxPoint x="8" y="-15" as="offset" />
          </mxGeometry>
        </mxCell>
        <mxCell id="Dl-U8Hc3WpcqcS4FIjY1-13" style="edgeStyle=orthogonalEdgeStyle;html=1;exitX=0;exitY=0.75;entryX=1;entryY=0.5;labelBackgroundColor=none;endArrow=open;endSize=8;strokeColor=#ff0000;fontFamily=Verdana;fontSize=12;align=left;entryDx=0;entryDy=0;exitDx=0;exitDy=0;" parent="1" target="Y7ORPjoq6ikZlCJi7uoU-5" edge="1">
          <mxGeometry relative="1" as="geometry">
            <mxPoint x="690" y="582" as="sourcePoint" />
            <mxPoint x="370" y="727" as="targetPoint" />
            <Array as="points">
              <mxPoint x="690" y="602" />
              <mxPoint x="580" y="602" />
              <mxPoint x="580" y="682" />
              <mxPoint x="420" y="682" />
              <mxPoint x="420" y="712" />
            </Array>
          </mxGeometry>
        </mxCell>
        <mxCell id="MgHSJvUHRTqeJIf1Ur7t-3" value="Error &amp;lt; 25% (0,25)" style="edgeLabel;html=1;align=center;verticalAlign=middle;resizable=0;points=[];" parent="Dl-U8Hc3WpcqcS4FIjY1-13" vertex="1" connectable="0">
          <mxGeometry x="-0.0495" y="-2" relative="1" as="geometry">
            <mxPoint x="-71" y="2" as="offset" />
          </mxGeometry>
        </mxCell>
        <mxCell id="Dl-U8Hc3WpcqcS4FIjY1-14" style="edgeStyle=orthogonalEdgeStyle;html=1;entryX=0.25;entryY=1;labelBackgroundColor=none;endArrow=open;endSize=8;strokeColor=#ff0000;fontFamily=Verdana;fontSize=12;align=left;entryDx=0;entryDy=0;exitX=0;exitY=0.5;exitDx=0;exitDy=0;" parent="1" source="Y7ORPjoq6ikZlCJi7uoU-5" target="382b91b5511bd0f7-5" edge="1">
          <mxGeometry relative="1" as="geometry">
            <mxPoint x="530" y="732" as="sourcePoint" />
            <mxPoint x="213.75" y="352" as="targetPoint" />
            <Array as="points">
              <mxPoint x="190" y="712" />
              <mxPoint x="190" y="352" />
              <mxPoint x="203" y="352" />
            </Array>
          </mxGeometry>
        </mxCell>
        <mxCell id="MgHSJvUHRTqeJIf1Ur7t-17" value="tick" style="edgeLabel;html=1;align=center;verticalAlign=middle;resizable=0;points=[];" parent="Dl-U8Hc3WpcqcS4FIjY1-14" vertex="1" connectable="0">
          <mxGeometry x="-0.454" y="-5" relative="1" as="geometry">
            <mxPoint x="-5" as="offset" />
          </mxGeometry>
        </mxCell>
        <mxCell id="Dl-U8Hc3WpcqcS4FIjY1-15" style="edgeStyle=orthogonalEdgeStyle;html=1;exitX=0.25;exitY=1;entryX=1;entryY=0.5;labelBackgroundColor=none;endArrow=open;endSize=8;strokeColor=#ff0000;fontFamily=Verdana;fontSize=12;align=left;entryDx=0;entryDy=0;exitDx=0;exitDy=0;" parent="1" source="382b91b5511bd0f7-9" target="dteMNdMqzlH5e8aGmHEx-33" edge="1">
          <mxGeometry relative="1" as="geometry">
            <mxPoint x="489" y="462" as="sourcePoint" />
            <mxPoint x="440" y="532" as="targetPoint" />
            <Array as="points">
              <mxPoint x="420" y="492" />
              <mxPoint x="410" y="492" />
              <mxPoint x="410" y="552" />
            </Array>
          </mxGeometry>
        </mxCell>
        <mxCell id="MgHSJvUHRTqeJIf1Ur7t-7" value="cont_smp_inv &amp;gt;= n_samples" style="edgeLabel;html=1;align=center;verticalAlign=middle;resizable=0;points=[];" parent="Dl-U8Hc3WpcqcS4FIjY1-15" vertex="1" connectable="0">
          <mxGeometry x="0.4826" y="3" relative="1" as="geometry">
            <mxPoint x="3" y="-53" as="offset" />
          </mxGeometry>
        </mxCell>
        <mxCell id="Dl-U8Hc3WpcqcS4FIjY1-16" style="edgeStyle=orthogonalEdgeStyle;html=1;exitX=0.5;exitY=0;entryX=0.5;entryY=1;labelBackgroundColor=none;endArrow=open;endSize=8;strokeColor=#ff0000;fontFamily=Verdana;fontSize=12;align=left;entryDx=0;entryDy=0;exitDx=0;exitDy=0;" parent="1" source="dteMNdMqzlH5e8aGmHEx-33" target="382b91b5511bd0f7-5" edge="1">
          <mxGeometry relative="1" as="geometry">
            <mxPoint x="279" y="452" as="sourcePoint" />
            <mxPoint x="279" y="392" as="targetPoint" />
            <Array as="points">
              <mxPoint x="280" y="482" />
              <mxPoint x="235" y="482" />
            </Array>
          </mxGeometry>
        </mxCell>
        <mxCell id="MgHSJvUHRTqeJIf1Ur7t-18" value="tick" style="edgeLabel;html=1;align=center;verticalAlign=middle;resizable=0;points=[];" parent="Dl-U8Hc3WpcqcS4FIjY1-16" vertex="1" connectable="0">
          <mxGeometry x="0.0807" y="-3" relative="1" as="geometry">
            <mxPoint x="-3" y="-1" as="offset" />
          </mxGeometry>
        </mxCell>
        <mxCell id="Dl-U8Hc3WpcqcS4FIjY1-17" style="edgeStyle=orthogonalEdgeStyle;html=1;exitX=0;exitY=0.5;entryX=1;entryY=0.75;labelBackgroundColor=none;endArrow=open;endSize=8;strokeColor=#ff0000;fontFamily=Verdana;fontSize=12;align=left;entryDx=0;entryDy=0;exitDx=0;exitDy=0;" parent="1" source="Y7ORPjoq6ikZlCJi7uoU-4" target="dteMNdMqzlH5e8aGmHEx-33" edge="1">
          <mxGeometry relative="1" as="geometry">
            <mxPoint x="660" y="612" as="sourcePoint" />
            <mxPoint x="559" y="612" as="targetPoint" />
            <Array as="points">
              <mxPoint x="660" y="552" />
              <mxPoint x="660" y="582" />
              <mxPoint x="360" y="582" />
              <mxPoint x="360" y="567" />
            </Array>
          </mxGeometry>
        </mxCell>
        <mxCell id="MgHSJvUHRTqeJIf1Ur7t-4" value="Error &amp;gt;= 25% (0,25)" style="edgeLabel;html=1;align=center;verticalAlign=middle;resizable=0;points=[];" parent="Dl-U8Hc3WpcqcS4FIjY1-17" vertex="1" connectable="0">
          <mxGeometry x="0.3907" relative="1" as="geometry">
            <mxPoint x="78" as="offset" />
          </mxGeometry>
        </mxCell>
        <mxCell id="Dl-U8Hc3WpcqcS4FIjY1-18" style="edgeStyle=orthogonalEdgeStyle;html=1;exitX=1;exitY=0.5;entryX=0.25;entryY=1;labelBackgroundColor=none;endArrow=open;endSize=8;strokeColor=#ff0000;fontFamily=Verdana;fontSize=12;align=left;entryDx=0;entryDy=0;exitDx=0;exitDy=0;" parent="1" source="382b91b5511bd0f7-9" target="Y7ORPjoq6ikZlCJi7uoU-6" edge="1">
          <mxGeometry relative="1" as="geometry">
            <mxPoint x="620" y="422" as="sourcePoint" />
            <mxPoint x="620" y="482" as="targetPoint" />
            <Array as="points">
              <mxPoint x="690" y="412" />
            </Array>
          </mxGeometry>
        </mxCell>
        <mxCell id="MgHSJvUHRTqeJIf1Ur7t-14" value="cont_smp_inv &amp;lt; n_samples" style="edgeLabel;html=1;align=center;verticalAlign=middle;resizable=0;points=[];" parent="Dl-U8Hc3WpcqcS4FIjY1-18" vertex="1" connectable="0">
          <mxGeometry x="-0.3508" y="2" relative="1" as="geometry">
            <mxPoint x="24" as="offset" />
          </mxGeometry>
        </mxCell>
        <mxCell id="MgHSJvUHRTqeJIf1Ur7t-1" value="Buffer MU_1[n_samples]&lt;div&gt;Buffer MU_2[n_samples]&lt;/div&gt;" style="text;html=1;align=center;verticalAlign=middle;resizable=0;points=[];autosize=1;strokeColor=none;fillColor=none;" parent="1" vertex="1">
          <mxGeometry x="840" y="1150" width="160" height="40" as="geometry" />
        </mxCell>
        <mxCell id="MgHSJvUHRTqeJIf1Ur7t-2" value="n_samples = 100" style="text;html=1;align=center;verticalAlign=middle;resizable=0;points=[];autosize=1;strokeColor=none;fillColor=none;" parent="1" vertex="1">
          <mxGeometry x="850" y="1120" width="120" height="30" as="geometry" />
        </mxCell>
        <mxCell id="MgHSJvUHRTqeJIf1Ur7t-9" value="Quality_Good = 0x00&lt;div&gt;Quality_Invalid = 0x01&lt;/div&gt;&lt;div&gt;Quality_Invalid = 0x02&lt;/div&gt;&lt;div&gt;Quality_Questionable = 0x03&lt;br&gt;&lt;div&gt;&lt;br&gt;&lt;/div&gt;&lt;/div&gt;" style="text;html=1;align=center;verticalAlign=middle;resizable=0;points=[];autosize=1;strokeColor=none;fillColor=none;" parent="1" vertex="1">
          <mxGeometry x="830" y="1200" width="180" height="90" as="geometry" />
        </mxCell>
        <mxCell id="MgHSJvUHRTqeJIf1Ur7t-19" value="se tiver flag MU_1 usa o calculo de X&lt;div&gt;se tiver flag MU_2 usa o calculo de Y&lt;/div&gt;" style="text;html=1;align=center;verticalAlign=middle;resizable=0;points=[];autosize=1;strokeColor=none;fillColor=none;" parent="1" vertex="1">
          <mxGeometry x="790" y="900" width="220" height="40" as="geometry" />
        </mxCell>
        <mxCell id="MgHSJvUHRTqeJIf1Ur7t-20" value="State Get Sample:&amp;nbsp;&lt;div&gt;- Validate the frame ( Checksum )&lt;/div&gt;&lt;div&gt;&lt;span style=&quot;background-color: initial;&quot;&gt;- Parse the frame ( Acquire the information&amp;nbsp;&lt;/span&gt;&lt;/div&gt;&lt;div&gt;&lt;span style=&quot;background-color: initial;&quot;&gt;regarding quality and value)&lt;/span&gt;&lt;/div&gt;" style="text;html=1;align=center;verticalAlign=middle;resizable=0;points=[];autosize=1;strokeColor=none;fillColor=none;" parent="1" vertex="1">
          <mxGeometry x="50" y="870" width="250" height="70" as="geometry" />
        </mxCell>
        <mxCell id="MgHSJvUHRTqeJIf1Ur7t-21" value="State Questionable:&amp;nbsp;&lt;div&gt;- Nothing&lt;/div&gt;" style="text;html=1;align=center;verticalAlign=middle;resizable=0;points=[];autosize=1;strokeColor=none;fillColor=none;" parent="1" vertex="1">
          <mxGeometry x="120" y="970" width="130" height="40" as="geometry" />
        </mxCell>
        <mxCell id="MgHSJvUHRTqeJIf1Ur7t-22" value="&lt;b&gt;&lt;i&gt;NOTAS&lt;/i&gt;&lt;/b&gt;" style="text;html=1;align=center;verticalAlign=middle;resizable=0;points=[];autosize=1;strokeColor=none;fillColor=none;" parent="1" vertex="1">
          <mxGeometry x="890" y="860" width="60" height="30" as="geometry" />
        </mxCell>
        <mxCell id="MgHSJvUHRTqeJIf1Ur7t-23" value="State Valid:&amp;nbsp;&lt;div&gt;- Increment cont_smp_valid&lt;/div&gt;&lt;div&gt;- Colocar o valor no Buffer MU_1[cont_smp_valid]&lt;/div&gt;&lt;div&gt;- Colocar o valor no Buffer MU_2[cont_smp_valid]&lt;br&gt;&lt;/div&gt;&lt;div&gt;&lt;br&gt;&lt;/div&gt;" style="text;html=1;align=center;verticalAlign=middle;resizable=0;points=[];autosize=1;strokeColor=none;fillColor=none;" parent="1" vertex="1">
          <mxGeometry x="20" y="1020" width="290" height="90" as="geometry" />
        </mxCell>
        <mxCell id="MgHSJvUHRTqeJIf1Ur7t-27" value="State Invalid:&amp;nbsp;&lt;div&gt;- Increment cont_smp_invalid&lt;/div&gt;&lt;div&gt;- Verifica se o valor é maior ou não que n_samples&lt;/div&gt;&lt;div&gt;&lt;br&gt;&lt;/div&gt;" style="text;html=1;align=center;verticalAlign=middle;resizable=0;points=[];autosize=1;strokeColor=none;fillColor=none;" parent="1" vertex="1">
          <mxGeometry x="20" y="1110" width="290" height="70" as="geometry" />
        </mxCell>
        <mxCell id="MgHSJvUHRTqeJIf1Ur7t-30" value="State Complete Sample:&amp;nbsp;&lt;div&gt;- Finalize the state machine frame&lt;/div&gt;" style="text;html=1;align=center;verticalAlign=middle;resizable=0;points=[];autosize=1;strokeColor=none;fillColor=none;" parent="1" vertex="1">
          <mxGeometry x="360" y="880" width="200" height="40" as="geometry" />
        </mxCell>
        <mxCell id="MgHSJvUHRTqeJIf1Ur7t-31" value="State Complete Cycle:&amp;nbsp;&lt;div&gt;- Finalize the state machine cycle&lt;/div&gt;&lt;div&gt;- Put the variables as initialized to start&amp;nbsp;&lt;/div&gt;&lt;div&gt;a new cycle&lt;/div&gt;" style="text;html=1;align=center;verticalAlign=middle;resizable=0;points=[];autosize=1;strokeColor=none;fillColor=none;" parent="1" vertex="1">
          <mxGeometry x="360" y="965" width="230" height="70" as="geometry" />
        </mxCell>
        <mxCell id="MgHSJvUHRTqeJIf1Ur7t-32" value="State Complete ToogleMU:&amp;nbsp;&lt;div&gt;- Set a output_sv_flag&amp;nbsp;to toogle the output&lt;/div&gt;&lt;div&gt;&amp;nbsp;SV to protection relay&lt;/div&gt;" style="text;html=1;align=center;verticalAlign=middle;resizable=0;points=[];autosize=1;strokeColor=none;fillColor=none;" parent="1" vertex="1">
          <mxGeometry x="360" y="1035" width="250" height="60" as="geometry" />
        </mxCell>
        <mxCell id="MgHSJvUHRTqeJIf1Ur7t-33" value="State Complete KeepMU:&amp;nbsp;&lt;div&gt;- Set a output_sv_flag to keep the output&lt;/div&gt;&lt;div&gt;&amp;nbsp;SV to protection relay&lt;/div&gt;" style="text;html=1;align=center;verticalAlign=middle;resizable=0;points=[];autosize=1;strokeColor=none;fillColor=none;" parent="1" vertex="1">
          <mxGeometry x="360" y="1090" width="240" height="60" as="geometry" />
        </mxCell>
        <mxCell id="MgHSJvUHRTqeJIf1Ur7t-34" value="State Check_Error_Percentage:&amp;nbsp;&lt;div&gt;- Clone Buferr MU_1 and MU_2 and make an average,&lt;/div&gt;&lt;div&gt;&amp;nbsp;- Subtract the (no current SV - current SV)/ current SV&lt;/div&gt;&lt;div&gt;- Verify if the error is higher than 25% (0,25)&amp;nbsp; (ToogleMU)&amp;nbsp;&lt;/div&gt;&lt;div&gt;or&lt;/div&gt;&lt;div&gt;- Verify if the error is less than 25% (0,25)&amp;nbsp; (KeepMU)&lt;br&gt;&lt;/div&gt;&lt;div&gt;&lt;br&gt;&lt;/div&gt;&lt;div&gt;&amp;nbsp;&lt;/div&gt;&lt;div&gt;&lt;br&gt;&lt;/div&gt;" style="text;html=1;align=center;verticalAlign=middle;resizable=0;points=[];autosize=1;strokeColor=none;fillColor=none;" parent="1" vertex="1">
          <mxGeometry x="20" y="1175" width="330" height="140" as="geometry" />
        </mxCell>
        <mxCell id="MgHSJvUHRTqeJIf1Ur7t-35" value="I Have flag thats commute between the two SV&#39;s" style="text;html=1;align=center;verticalAlign=middle;resizable=0;points=[];autosize=1;strokeColor=none;fillColor=none;" parent="1" vertex="1">
          <mxGeometry x="790" y="1280" width="280" height="30" as="geometry" />
        </mxCell>
      </root>
    </mxGraphModel>
  </diagram>
</mxfile>
